<svg xmlns="http://www.w3.org/2000/svg" version="1.1" xmlns:xlink="http://www.w3.org/1999/xlink" xmlns:svgjs="http://svgjs.dev/svgjs" viewBox="0 0 2400 800" opacity="0.37"><defs><linearGradient x1="50%" y1="0%" x2="50%" y2="100%" id="sssurf-grad"><stop stop-color="hsl(208, 77%, 50%)" stop-opacity="1" offset="0%"></stop><stop stop-color="hsl(208, 74%, 93%)" stop-opacity="1" offset="100%"></stop></linearGradient></defs><g fill="url(#sssurf-grad)" transform="matrix(1,0,0,1,-10.4755859375,315.1403503417969)"><path d="M-10,10C242.08333333333331,15.833333333333334,697.9166666666666,65.91666666666666,1200,38C1702.0833333333335,10.083333333333336,2097.9166666666665,-199.41666666666669,2400,-124C2702.0833333333335,-48.58333333333333,3254.1666666666665,186.66666666666669,2650,400C2045.8333333333335,613.3333333333333,156.25,795.8333333333334,-500,900" transform="matrix(1,0,0,1,0,35)" opacity="0.05"></path><path d="M-10,10C242.08333333333331,15.833333333333334,697.9166666666666,65.91666666666666,1200,38C1702.0833333333335,10.083333333333336,2097.9166666666665,-199.41666666666669,2400,-124C2702.0833333333335,-48.58333333333333,3254.1666666666665,186.66666666666669,2650,400C2045.8333333333335,613.3333333333333,156.25,795.8333333333334,-500,900" transform="matrix(1,0,0,1,0,70)" opacity="0.29"></path><path d="M-10,10C242.08333333333331,15.833333333333334,697.9166666666666,65.91666666666666,1200,38C1702.0833333333335,10.083333333333336,2097.9166666666665,-199.41666666666669,2400,-124C2702.0833333333335,-48.58333333333333,3254.1666666666665,186.66666666666669,2650,400C2045.8333333333335,613.3333333333333,156.25,795.8333333333334,-500,900" transform="matrix(1,0,0,1,0,105)" opacity="0.53"></path><path d="M-10,10C242.08333333333331,15.833333333333334,697.9166666666666,65.91666666666666,1200,38C1702.0833333333335,10.083333333333336,2097.9166666666665,-199.41666666666669,2400,-124C2702.0833333333335,-48.58333333333333,3254.1666666666665,186.66666666666669,2650,400C2045.8333333333335,613.3333333333333,156.25,795.8333333333334,-500,900" transform="matrix(1,0,0,1,0,140)" opacity="0.76"></path><path d="M-10,10C242.08333333333331,15.833333333333334,697.9166666666666,65.91666666666666,1200,38C1702.0833333333335,10.083333333333336,2097.9166666666665,-199.41666666666669,2400,-124C2702.0833333333335,-48.58333333333333,3254.1666666666665,186.66666666666669,2650,400C2045.8333333333335,613.3333333333333,156.25,795.8333333333334,-500,900" transform="matrix(1,0,0,1,0,175)" opacity="1.00"></path></g></svg>